HIERARCHY
ROOT Hips
{
	OFFSET 0.000000 100.481300 0.000000
	CHANNELS 6 Xposition Yposition Zposition Xrotation Yrotation Zrotation
	JOINT Spine
	{
		OFFSET -0.279200 12.230698 -2.892100
		CHANNELS 3 Xrotation Yrotation Zrotation
		JOINT Spine1
		{
			OFFSET -0.325700 14.269203 -3.374200
			CHANNELS 3 Xrotation Yrotation Zrotation
			JOINT Spine2
			{
				OFFSET -0.372300 16.307602 -0.352600
				CHANNELS 3 Xrotation Yrotation Zrotation
				JOINT Neck
				{
					OFFSET -0.418800 17.814194 8.416900
					CHANNELS 3 Xrotation Yrotation Zrotation
					JOINT Head
					{
						OFFSET 0.000000 7.031097 3.806800
						CHANNELS 3 Xrotation Yrotation Zrotation
						JOINT HeadTop_End
						{
							OFFSET 0.000000 24.646606 12.978600
							CHANNELS 3 Xrotation Yrotation Zrotation
							End Site
							{
								OFFSET 0.000000 27.854965 0.000000
							}
						}
					}
				}
				JOINT LeftShoulder
				{
					OFFSET 16.952999 14.495407 -7.737500
					CHANNELS 3 Xrotation Yrotation Zrotation
					JOINT LeftArm
					{
						OFFSET 9.308998 -2.777710 0.208600
						CHANNELS 3 Xrotation Yrotation Zrotation
						JOINT LeftForeArm
						{
							OFFSET 29.972298 0.000000 0.000000
							CHANNELS 3 Xrotation Yrotation Zrotation
							JOINT LeftHand
							{
								OFFSET 26.026505 0.000000 0.000000
								CHANNELS 3 Xrotation Yrotation Zrotation
								JOINT LeftHandThumb1
								{
									OFFSET 12.240501 -7.147949 9.207150
									CHANNELS 3 Xrotation Yrotation Zrotation
									JOINT LeftHandThumb2
									{
										OFFSET 4.138618 -2.389435 2.389433
										CHANNELS 3 Xrotation Yrotation Zrotation
										JOINT LeftHandThumb3
										{
											OFFSET 2.726913 -1.574387 1.574386
											CHANNELS 3 Xrotation Yrotation Zrotation
											JOINT LeftHandThumb4
											{
												OFFSET 3.941010 -2.275345 2.275342
												CHANNELS 3 Xrotation Yrotation Zrotation
												End Site
												{
													OFFSET -0.005798 5.087799 0.009903
												}
											}
										}
									}
								}
								JOINT LeftHandIndex1
								{
									OFFSET 24.424698 -1.985611 5.953459
									CHANNELS 3 Xrotation Yrotation Zrotation
									JOINT LeftHandIndex2
									{
										OFFSET 6.426697 0.000000 0.000000
										CHANNELS 3 Xrotation Yrotation Zrotation
										JOINT LeftHandIndex3
										{
											OFFSET 5.337898 0.000000 0.000000
											CHANNELS 3 Xrotation Yrotation Zrotation
											JOINT LeftHandIndex4
											{
												OFFSET 4.409401 0.000000 0.000000
												CHANNELS 3 Xrotation Yrotation Zrotation
												End Site
												{
													OFFSET 0.000000 4.409363 0.014373
												}
											}
										}
									}
								}
								JOINT LeftHandMiddle1
								{
									OFFSET 23.810104 0.000000 0.000000
									CHANNELS 3 Xrotation Yrotation Zrotation
									JOINT LeftHandMiddle2
									{
										OFFSET 7.176498 0.000000 0.000000
										CHANNELS 3 Xrotation Yrotation Zrotation
										JOINT LeftHandMiddle3
										{
											OFFSET 6.774902 0.000000 0.000000
											CHANNELS 3 Xrotation Yrotation Zrotation
											JOINT LeftHandMiddle4
											{
												OFFSET 5.403328 0.000000 0.000000
												CHANNELS 3 Xrotation Yrotation Zrotation
												End Site
												{
													OFFSET -0.027702 5.403244 0.017414
												}
											}
										}
									}
								}
								JOINT LeftHandRing1
								{
									OFFSET 22.908401 -0.839279 -6.020567
									CHANNELS 3 Xrotation Yrotation Zrotation
									JOINT LeftHandRing2
									{
										OFFSET 6.337502 0.000000 0.000000
										CHANNELS 3 Xrotation Yrotation Zrotation
										JOINT LeftHandRing3
										{
											OFFSET 5.779297 0.000000 0.000000
											CHANNELS 3 Xrotation Yrotation Zrotation
											JOINT LeftHandRing4
											{
												OFFSET 4.965698 0.000000 0.000000
												CHANNELS 3 Xrotation Yrotation Zrotation
												End Site
												{
													OFFSET 0.000000 4.965668 0.016186
												}
											}
										}
									}
								}
								JOINT LeftHandPinky1
								{
									OFFSET 20.037003 -1.530319 -10.950146
									CHANNELS 3 Xrotation Yrotation Zrotation
									JOINT LeftHandPinky2
									{
										OFFSET 5.254700 0.000000 0.000000
										CHANNELS 3 Xrotation Yrotation Zrotation
										JOINT LeftHandPinky3
										{
											OFFSET 4.810204 0.000000 0.000000
											CHANNELS 3 Xrotation Yrotation Zrotation
											JOINT LeftHandPinky4
											{
												OFFSET 3.647202 0.000000 0.000000
												CHANNELS 3 Xrotation Yrotation Zrotation
												End Site
												{
													OFFSET 0.000000 3.647186 0.011889
												}
											}
										}
									}
								}
							}
						}
					}
				}
				JOINT RightShoulder
				{
					OFFSET -15.141001 14.495407 -7.737500
					CHANNELS 3 Xrotation Yrotation Zrotation
					JOINT RightArm
					{
						OFFSET -9.308998 -2.777710 0.208500
						CHANNELS 3 Xrotation Yrotation Zrotation
						JOINT RightForeArm
						{
							OFFSET -29.972300 0.000000 0.000000
							CHANNELS 3 Xrotation Yrotation Zrotation
							JOINT RightHand
							{
								OFFSET -26.026505 0.000000 0.000000
								CHANNELS 3 Xrotation Yrotation Zrotation
								JOINT RightHandThumb1
								{
									OFFSET -12.240601 -7.148026 9.207092
									CHANNELS 3 Xrotation Yrotation Zrotation
									JOINT RightHandThumb2
									{
										OFFSET -4.138618 -2.389435 2.389433
										CHANNELS 3 Xrotation Yrotation Zrotation
										JOINT RightHandThumb3
										{
											OFFSET -2.726974 -1.574417 1.574421
											CHANNELS 3 Xrotation Yrotation Zrotation
											JOINT RightHandThumb4
											{
												OFFSET -3.941010 -2.275345 2.275343
												CHANNELS 3 Xrotation Yrotation Zrotation
												End Site
												{
													OFFSET 0.005814 5.087799 0.009927
												}
											}
										}
									}
								}
								JOINT RightHandIndex1
								{
									OFFSET -24.424698 -1.985657 5.953444
									CHANNELS 3 Xrotation Yrotation Zrotation
									JOINT RightHandIndex2
									{
										OFFSET -6.426697 0.000000 0.000000
										CHANNELS 3 Xrotation Yrotation Zrotation
										JOINT RightHandIndex3
										{
											OFFSET -5.337898 0.000000 0.000000
											CHANNELS 3 Xrotation Yrotation Zrotation
											JOINT RightHandIndex4
											{
												OFFSET -4.409401 0.000000 0.000000
												CHANNELS 3 Xrotation Yrotation Zrotation
												End Site
												{
													OFFSET 0.000000 4.409363 0.014408
												}
											}
										}
									}
								}
								JOINT RightHandMiddle1
								{
									OFFSET -23.810097 0.000000 0.000000
									CHANNELS 3 Xrotation Yrotation Zrotation
									JOINT RightHandMiddle2
									{
										OFFSET -7.176498 0.000000 0.000000
										CHANNELS 3 Xrotation Yrotation Zrotation
										JOINT RightHandMiddle3
										{
											OFFSET -6.774902 0.000000 0.000000
											CHANNELS 3 Xrotation Yrotation Zrotation
											JOINT RightHandMiddle4
											{
												OFFSET -5.403328 0.000000 0.000000
												CHANNELS 3 Xrotation Yrotation Zrotation
												End Site
												{
													OFFSET 0.027702 5.403244 0.017457
												}
											}
										}
									}
								}
								JOINT RightHandRing1
								{
									OFFSET -22.908302 -0.839325 -6.020576
									CHANNELS 3 Xrotation Yrotation Zrotation
									JOINT RightHandRing2
									{
										OFFSET -6.337502 0.000000 0.000000
										CHANNELS 3 Xrotation Yrotation Zrotation
										JOINT RightHandRing3
										{
											OFFSET -5.779297 0.000000 0.000000
											CHANNELS 3 Xrotation Yrotation Zrotation
											JOINT RightHandRing4
											{
												OFFSET -4.965698 0.000000 0.000000
												CHANNELS 3 Xrotation Yrotation Zrotation
												End Site
												{
													OFFSET 0.000000 4.965668 0.016226
												}
											}
										}
									}
								}
								JOINT RightHandPinky1
								{
									OFFSET -20.037003 -1.530334 -10.950259
									CHANNELS 3 Xrotation Yrotation Zrotation
									JOINT RightHandPinky2
									{
										OFFSET -5.254700 0.000000 0.000000
										CHANNELS 3 Xrotation Yrotation Zrotation
										JOINT RightHandPinky3
										{
											OFFSET -4.810204 0.000000 0.000000
											CHANNELS 3 Xrotation Yrotation Zrotation
											JOINT RightHandPinky4
											{
												OFFSET -3.647202 0.000000 0.000000
												CHANNELS 3 Xrotation Yrotation Zrotation
												End Site
												{
													OFFSET 0.000000 3.647186 0.011917
												}
											}
										}
									}
								}
							}
						}
					}
				}
			}
		}
	}
	JOINT LeftUpLeg
	{
		OFFSET 15.427100 -6.655098 0.678600
		CHANNELS 3 Xrotation Yrotation Zrotation
		JOINT LeftLeg
		{
			OFFSET 4.081073 -39.591068 13.024000
			CHANNELS 3 Xrotation Yrotation Zrotation
			JOINT LeftFoot
			{
				OFFSET -4.081074 -37.707932 -15.979700
				CHANNELS 3 Xrotation Yrotation Zrotation
				JOINT LeftToeBase
				{
					OFFSET 5.346399 -15.068900 20.645000
					CHANNELS 3 Xrotation Yrotation Zrotation
					JOINT LeftToe_End
					{
						OFFSET 2.754700 0.931300 11.300900
						CHANNELS 3 Xrotation Yrotation Zrotation
						End Site
						{
							OFFSET 0.000000 11.669021 0.000000
						}
					}
				}
			}
		}
	}
	JOINT RightUpLeg
	{
		OFFSET -15.569500 -6.655098 0.678600
		CHANNELS 3 Xrotation Yrotation Zrotation
		JOINT RightLeg
		{
			OFFSET -4.081825 -39.591045 13.023800
			CHANNELS 3 Xrotation Yrotation Zrotation
			JOINT RightFoot
			{
				OFFSET 4.081824 -37.707954 -15.979600
				CHANNELS 3 Xrotation Yrotation Zrotation
				JOINT RightToeBase
				{
					OFFSET -5.346400 -15.068900 20.645000
					CHANNELS 3 Xrotation Yrotation Zrotation
					JOINT RightToe_End
					{
						OFFSET -2.754700 0.931300 11.300900
						CHANNELS 3 Xrotation Yrotation Zrotation
						End Site
						{
							OFFSET 0.000000 11.669021 0.000000
						}
					}
				}
			}
		}
	}
}
MOTION
Frames: 6
Frame Time: 0.033333
0.033130 78.178894 -0.191948 -2.928398 1.403652 -1.180663 1.568169 -0.630564 0.138693 3.144280 -1.368499 0.997611 3.141893 -1.374181 0.997771 8.296872 -1.607775 2.074877 -18.843309 -1.272433 -10.692281 0.000000 0.000000 0.000000 4.198189 -15.586804 -10.328377 18.069312 -20.457171 -45.376823 -0.007249 -89.199491 -0.007348 -19.527132 -9.325077 16.158049 29.887999 14.429434 -8.774157 38.121854 38.135040 -7.364022 10.558589 17.630093 4.995531 -0.000000 -0.000000 0.000002 8.281285 6.737914 -101.767278 8.281306 6.737925 -101.767394 2.523452 5.330617 -50.639528 0.000000 0.000000 0.000001 8.279392 6.738301 -101.751083 8.283200 6.737536 -101.783602 2.523441 5.330628 -50.639531 0.000000 0.000001 0.000000 8.281287 6.737915 -101.767271 8.281307 6.737931 -101.767401 2.523444 5.330611 -50.639531 0.000000 0.000001 0.000002 12.275160 5.913180 -101.697063 8.274839 2.652413 -101.688328 2.523453 5.330616 -50.639521 -0.000000 0.000000 -0.000001 0.763409 5.669473 9.335465 22.513335 0.329185 80.946956 0.000085 84.307272 -0.000094 -7.106377 9.493163 -0.119517 43.117656 -0.319960 9.910196 16.908224 -51.364928 3.300686 2.873973 -21.213647 -4.843338 -0.000005 -0.000002 -0.000003 8.361648 -6.803655 101.765099 8.366930 -6.802550 101.809550 2.549656 -5.384020 50.655675 -0.000002 0.000000 -0.000000 8.361647 -6.803653 101.765099 8.366934 -6.802552 101.809543 2.549648 -5.384029 50.655664 -0.000001 0.000000 -0.000000 8.361648 -6.803655 101.765106 8.366927 -6.802555 101.809543 2.549655 -5.384019 50.655675 -0.000001 0.000000 -0.000000 8.361648 -6.803655 101.765099 8.366946 -6.802559 101.809543 2.549652 -5.384013 50.655675 -0.000000 -0.000000 -0.000001 -31.121446 2.089441 19.982000 53.265807 -9.682817 1.547980 -15.648908 0.208098 -12.415464 -11.244580 -0.000002 -0.000003 0.000000 -0.000000 -0.000000 -25.959666 -10.457062 -15.420807 51.801418 10.311148 -1.139473 -24.408789 2.990537 6.677207 -2.840957 0.000003 0.000001 0.000000 0.000000 -0.000000 
0.495157 78.614090 -0.263766 -2.610826 2.794506 -1.773100 1.558477 -0.569369 0.579087 3.121336 -1.253910 1.220611 3.120856 -1.255250 1.220619 8.021906 -1.772681 2.373008 -18.823945 -1.950531 -10.761745 -0.000000 -0.000000 -0.000001 4.263828 -15.836314 -10.304350 18.212481 -20.730526 -44.944786 -0.011487 -89.145484 -0.011757 -19.829496 -9.405213 15.814598 29.888003 14.429437 -8.774149 38.121847 38.135036 -7.364028 10.558590 17.630093 4.995537 0.000001 0.000000 0.000002 8.281287 6.737916 -101.767271 8.281306 6.737926 -101.767401 2.523450 5.330615 -50.639525 0.000001 0.000001 0.000001 8.279394 6.738301 -101.751083 8.283202 6.737532 -101.783602 2.523438 5.330625 -50.639528 0.000000 -0.000003 0.000000 8.281287 6.737916 -101.767271 8.281310 6.737929 -101.767401 2.523444 5.330612 -50.639531 -0.000000 -0.000000 -0.000001 12.275160 5.913180 -101.697063 8.274841 2.652412 -101.688328 2.523454 5.330616 -50.639518 0.000000 -0.000000 -0.000000 0.771280 6.227851 9.237020 19.862786 -6.050553 79.003521 0.000215 84.127242 -0.000201 -6.667027 10.658759 -0.577095 43.117659 -0.319964 9.910200 16.908229 -51.364921 3.300686 2.873974 -21.213647 -4.843335 -0.000000 -0.000003 -0.000001 8.361648 -6.803661 101.765099 8.366931 -6.802548 101.809550 2.549656 -5.384020 50.655671 -0.000000 -0.000001 0.000001 8.361647 -6.803660 101.765099 8.366936 -6.802552 101.809543 2.549650 -5.384026 50.655664 -0.000001 0.000000 0.000000 8.361648 -6.803659 101.765106 8.366929 -6.802555 101.809543 2.549654 -5.384018 50.655678 -0.000000 0.000000 -0.000001 8.361648 -6.803661 101.765099 8.366945 -6.802558 101.809543 2.549653 -5.384015 50.655675 -0.000001 0.000000 -0.000001 -31.517860 0.413177 19.142628 52.975449 -9.589648 1.459276 -15.156070 0.617433 -12.034664 -11.110458 -0.000002 0.000006 0.000001 -0.000000 -0.000000 -25.159620 -11.368084 -15.543651 50.342493 10.386643 -0.727180 -23.999109 2.449969 6.971010 -2.835092 0.000000 0.000003 -0.000000 -0.000000 -0.000000 
0.943179 79.304237 -0.376931 -2.453736 4.620980 -2.160559 1.526894 -0.474325 0.876540 3.056097 -1.080050 1.330162 3.056485 -1.078477 1.330013 7.786336 -2.075248 2.844356 -18.735496 -3.251441 -10.835740 0.000000 0.000000 0.000000 4.317408 -16.116147 -10.272850 18.328440 -21.063696 -44.420313 -0.018514 -89.144835 -0.018636 -19.997906 -9.060051 15.389613 29.888003 14.429434 -8.774154 38.121850 38.135036 -7.364029 10.558588 17.630096 4.995529 -0.000004 -0.000000 -0.000003 8.281288 6.737915 -101.767271 8.281306 6.737925 -101.767401 2.523450 5.330618 -50.639528 0.000000 0.000000 0.000000 8.279395 6.738302 -101.751077 8.283203 6.737530 -101.783602 2.523441 5.330630 -50.639525 0.000000 -0.000001 -0.000001 8.281288 6.737915 -101.767278 8.281307 6.737929 -101.767401 2.523445 5.330615 -50.639535 0.000000 0.000001 0.000001 12.275161 5.913179 -101.697070 8.274838 2.652417 -101.688334 2.523454 5.330616 -50.639518 -0.000000 0.000000 -0.000001 0.771416 7.235892 9.455549 15.648361 -12.472042 75.862809 -0.000425 84.529526 0.000442 -6.723497 9.839171 -0.814595 43.117663 -0.319962 9.910198 16.908224 -51.364928 3.300689 2.873973 -21.213651 -4.843335 0.000000 0.000003 0.000003 8.361648 -6.803660 101.765099 8.366925 -6.802550 101.809550 2.549654 -5.384018 50.655671 0.000000 0.000001 -0.000002 8.361648 -6.803659 101.765099 8.366932 -6.802552 101.809550 2.549650 -5.384027 50.655661 -0.000001 -0.000000 -0.000002 8.361650 -6.803659 101.765106 8.366930 -6.802555 101.809550 2.549656 -5.384017 50.655675 0.000000 0.000000 -0.000001 8.361649 -6.803660 101.765099 8.366942 -6.802558 101.809543 2.549653 -5.384013 50.655675 -0.000000 0.000000 -0.000001 -31.472935 -1.645139 17.796618 52.046462 -9.476368 1.236725 -14.296091 1.159536 -11.635011 -10.873549 0.000001 -0.000003 0.000000 -0.000000 0.000000 -23.787642 -12.263863 -15.778435 48.408204 10.470801 -0.177150 -23.490591 1.471226 7.218392 -2.811851 -0.000002 -0.000001 0.000000 -0.000000 0.000000 
1.398661 80.226639 -0.508595 -2.377360 6.931849 -2.434573 1.467406 -0.313582 1.011971 2.936405 -0.782317 1.322574 2.936939 -0.779484 1.322414 7.647237 -2.547992 3.490204 -18.510584 -5.386888 -10.850665 0.000000 -0.000000 0.000001 4.406565 -16.553126 -10.224134 18.567545 -21.584906 -43.723350 0.018050 -89.153892 0.017947 -19.814959 -8.503772 15.169138 29.888003 14.429439 -8.774154 38.121854 38.135029 -7.364023 10.558591 17.630096 4.995534 -0.000002 -0.000001 0.000000 8.281287 6.737916 -101.767278 8.281304 6.737924 -101.767401 2.523452 5.330618 -50.639528 0.000000 -0.000000 0.000001 8.279394 6.738300 -101.751077 8.283202 6.737534 -101.783595 2.523441 5.330628 -50.639528 0.000000 0.000002 -0.000000 8.281287 6.737916 -101.767271 8.281310 6.737927 -101.767401 2.523445 5.330616 -50.639535 0.000000 -0.000001 0.000001 12.275160 5.913181 -101.697070 8.274838 2.652412 -101.688334 2.523455 5.330618 -50.639525 -0.000000 0.000000 -0.000001 0.786496 9.094744 10.095108 9.182079 -18.017909 71.863767 0.000656 85.338474 -0.000688 -7.280048 7.687694 -0.903074 43.117656 -0.319961 9.910199 16.908227 -51.364932 3.300686 2.873971 -21.213645 -4.843334 0.000002 -0.000002 -0.000004 8.361648 -6.803659 101.765099 8.366930 -6.802550 101.809543 2.549655 -5.384019 50.655671 -0.000001 0.000000 -0.000000 8.361647 -6.803659 101.765099 8.366933 -6.802553 101.809543 2.549652 -5.384029 50.655664 -0.000001 -0.000001 0.000002 8.361648 -6.803658 101.765106 8.366929 -6.802554 101.809543 2.549657 -5.384018 50.655668 0.000001 -0.000001 0.000001 8.361648 -6.803659 101.765099 8.366940 -6.802558 101.809543 2.549653 -5.384012 50.655678 0.000001 -0.000001 -0.000001 -31.251455 -3.896126 16.208025 50.549882 -9.359903 0.901491 -13.067721 1.449258 -11.173272 -10.747727 0.000001 -0.000004 0.000000 0.000000 0.000000 -21.839171 -13.158796 -15.980935 45.952922 10.565419 0.521529 -22.886567 -0.076643 7.406255 -2.822121 -0.000002 0.000001 0.000000 -0.000000 -0.000000 
1.871345 81.269234 -0.664066 -2.242931 9.523973 -2.674972 1.382928 -0.058874 1.027163 2.767916 -0.301521 1.222052 2.768424 -0.298655 1.222076 7.619167 -3.183987 4.222739 -18.079195 -8.401699 -10.769742 0.000000 -0.000000 -0.000000 4.566383 -17.222597 -10.151221 19.158539 -22.300516 -42.760430 -0.000228 -89.062805 -0.000329 -19.198275 -8.120169 15.377333 29.887999 14.429435 -8.774153 38.121850 38.135036 -7.364028 10.558587 17.630095 4.995532 -0.000003 -0.000000 0.000002 8.281288 6.737915 -101.767278 8.281306 6.737927 -101.767401 2.523449 5.330616 -50.639528 0.000000 0.000000 0.000001 8.279393 6.738301 -101.751083 8.283202 6.737532 -101.783602 2.523437 5.330625 -50.639531 -0.000000 -0.000000 0.000000 8.281291 6.737915 -101.767271 8.281309 6.737930 -101.767401 2.523447 5.330613 -50.639531 -0.000000 -0.000001 0.000000 12.275162 5.913182 -101.697063 8.274839 2.652413 -101.688328 2.523453 5.330614 -50.639521 -0.000000 0.000001 -0.000002 0.799335 12.112616 11.023475 1.244577 -22.227341 67.281550 0.001162 86.019020 -0.001138 -8.237314 5.853581 -0.920603 43.117659 -0.319962 9.910198 16.908232 -51.364925 3.300684 2.873972 -21.213649 -4.843336 -0.000000 -0.000000 -0.000001 8.361649 -6.803659 101.765099 8.366930 -6.802550 101.809543 2.549654 -5.384018 50.655675 -0.000000 -0.000001 0.000001 8.361648 -6.803659 101.765099 8.366932 -6.802553 101.809543 2.549649 -5.384027 50.655661 -0.000000 0.000001 0.000001 8.361649 -6.803658 101.765106 8.366931 -6.802557 101.809543 2.549657 -5.384020 50.655675 0.000000 -0.000001 -0.000001 8.361649 -6.803659 101.765099 8.366942 -6.802559 101.809543 2.549652 -5.384012 50.655671 0.000000 -0.000000 0.000000 -31.228390 -5.779260 14.770122 48.726911 -9.258025 0.483822 -11.535833 1.108485 -10.568423 -10.621310 -0.000001 -0.000010 -0.000000 -0.000000 -0.000000 -19.605232 -13.889634 -16.010896 43.151219 10.666648 1.315186 -22.197976 -2.123698 7.537261 -2.838845 -0.000002 -0.000002 0.000000 -0.000000 -0.000000 
2.348909 82.239838 -0.876235 -1.971338 12.028844 -2.882084 1.292011 0.305545 1.012144 2.589485 0.393205 1.067911 2.589791 0.395939 1.068054 7.620187 -3.926479 4.859110 -17.418693 -12.080833 -10.637626 -0.000000 0.000000 -0.000000 4.775926 -18.035652 -10.060186 20.062315 -23.172393 -41.434072 0.002269 -88.776634 0.002245 -18.346195 -8.177114 15.947298 29.887999 14.429434 -8.774153 38.121854 38.135033 -7.364032 10.558592 17.630095 4.995532 0.000002 -0.000003 0.000000 8.281287 6.737912 -101.767271 8.281306 6.737926 -101.767394 2.523449 5.330618 -50.639535 0.000000 0.000001 0.000000 8.279391 6.738299 -101.751083 8.283203 6.737532 -101.783602 2.523439 5.330628 -50.639531 -0.000000 0.000003 -0.000000 8.281287 6.737912 -101.767271 8.281309 6.737928 -101.767394 2.523445 5.330615 -50.639531 -0.000000 -0.000001 0.000000 12.275161 5.913179 -101.697070 8.274839 2.652414 -101.688334 2.523453 5.330618 -50.639518 -0.000000 -0.000001 0.000000 0.776127 16.242149 11.744385 -8.503932 -24.276343 62.636557 -0.000791 85.978496 0.000749 -9.335480 6.078163 -0.907491 43.117659 -0.319962 9.910197 16.908234 -51.364925 3.300685 2.873974 -21.213651 -4.843334 0.000001 0.000000 0.000001 8.361649 -6.803660 101.765099 8.366931 -6.802547 101.809543 2.549657 -5.384020 50.655678 -0.000001 -0.000000 -0.000001 8.361648 -6.803659 101.765099 8.366935 -6.802550 101.809550 2.549646 -5.384027 50.655657 -0.000000 -0.000001 0.000002 8.361649 -6.803659 101.765106 8.366930 -6.802558 101.809543 2.549656 -5.384017 50.655671 0.000001 -0.000001 -0.000001 8.361649 -6.803660 101.765099 8.366942 -6.802556 101.809550 2.549654 -5.384014 50.655675 -0.000000 -0.000000 -0.000002 -31.666161 -6.674978 13.762479 46.913708 -9.193432 0.054681 -9.887682 -0.270597 -9.774340 -10.482354 -0.000005 -0.000003 -0.000000 0.000000 0.000000 -17.574096 -14.314744 -15.870443 40.488415 10.755484 2.065374 -21.504359 -4.664036 7.598106 -3.034580 -0.000002 -0.000002 0.000000 -0.000000 0.000000 
